<svg width="1280" height="640" viewBox="0 0 1280 640" fill="none" xmlns="http://www.w3.org/2000/svg" role="img" aria-labelledby="title desc">
  <title id="title">perfetto-mcp-rs social preview</title>
  <desc id="desc">GitHub social preview image for perfetto-mcp-rs, featuring the current trace and MCP wordmark on a branded background.</desc>
  <defs>
    <linearGradient id="spBg" x1="96" y1="24" x2="1150" y2="630" gradientUnits="userSpaceOnUse">
      <stop stop-color="#101826"/>
      <stop offset="0.58" stop-color="#17304A"/>
      <stop offset="1" stop-color="#1C405F"/>
    </linearGradient>
    <linearGradient id="spPanel" x1="174" y1="110" x2="1104" y2="350" gradientUnits="userSpaceOnUse">
      <stop stop-color="#101826"/>
      <stop offset="1" stop-color="#18324B"/>
    </linearGradient>
    <linearGradient id="spWarm" x1="148" y1="146" x2="318" y2="146" gradientUnits="userSpaceOnUse">
      <stop stop-color="#FF765C"/>
      <stop offset="1" stop-color="#FFA14A"/>
    </linearGradient>
    <linearGradient id="spCool" x1="148" y1="238" x2="292" y2="238" gradientUnits="userSpaceOnUse">
      <stop stop-color="#49C9F3"/>
      <stop offset="1" stop-color="#5CE0C3"/>
    </linearGradient>
    <linearGradient id="spGold" x1="148" y1="330" x2="338" y2="330" gradientUnits="userSpaceOnUse">
      <stop stop-color="#F4B640"/>
      <stop offset="1" stop-color="#FFD86F"/>
    </linearGradient>
    <linearGradient id="spNode" x1="296" y1="132" x2="416" y2="306" gradientUnits="userSpaceOnUse">
      <stop stop-color="#B9F5FF"/>
      <stop offset="1" stop-color="#75D2FF"/>
    </linearGradient>
    <linearGradient id="spTraceFade" x1="126" y1="472" x2="1154" y2="472" gradientUnits="userSpaceOnUse">
      <stop stop-color="#4D6885" stop-opacity="0.15"/>
      <stop offset="0.5" stop-color="#76CDEB" stop-opacity="0.46"/>
      <stop offset="1" stop-color="#4D6885" stop-opacity="0.15"/>
    </linearGradient>
    <filter id="spShadow" x="108" y="68" width="1064" height="300" filterUnits="userSpaceOnUse" color-interpolation-filters="sRGB">
      <feDropShadow dx="0" dy="18" stdDeviation="18" flood-color="#07101A" flood-opacity="0.30"/>
    </filter>
  </defs>

  <rect width="1280" height="640" fill="#101826"/>
  <rect width="1280" height="640" fill="url(#spBg)"/>

  <path d="M0 118H1280" stroke="#2C4661" stroke-opacity="0.32" stroke-width="2"/>
  <path d="M0 520H1280" stroke="#2C4661" stroke-opacity="0.28" stroke-width="2"/>
  <path d="M112 62H1168" stroke="#496780" stroke-opacity="0.20" stroke-width="2" stroke-linecap="round"/>
  <path d="M112 578H1168" stroke="#496780" stroke-opacity="0.20" stroke-width="2" stroke-linecap="round"/>

  <g opacity="0.34">
    <path d="M126 434H1154" stroke="url(#spTraceFade)" stroke-width="6" stroke-linecap="round"/>
    <path d="M126 474H1154" stroke="url(#spTraceFade)" stroke-width="6" stroke-linecap="round"/>
    <path d="M126 514H1154" stroke="url(#spTraceFade)" stroke-width="6" stroke-linecap="round"/>
  </g>

  <g opacity="0.92">
    <rect x="174" y="426" width="182" height="16" rx="8" fill="url(#spWarm)"/>
    <rect x="376" y="426" width="72" height="16" rx="8" fill="#F3A281"/>
    <rect x="520" y="466" width="220" height="16" rx="8" fill="url(#spCool)"/>
    <rect x="758" y="466" width="96" height="16" rx="8" fill="#76E8D6"/>
    <rect x="902" y="506" width="136" height="16" rx="8" fill="url(#spGold)"/>
    <rect x="1054" y="506" width="86" height="16" rx="8" fill="#FFD978"/>
  </g>

  <g filter="url(#spShadow)">
    <rect x="150" y="92" width="980" height="260" rx="42" fill="url(#spPanel)"/>

    <svg x="186" y="112" width="184" height="176" viewBox="82 96 368 300" fill="none">
      <g transform="translate(0 10)">
        <path d="M118 146H318" stroke="#24384C" stroke-width="18" stroke-linecap="round"/>
        <path d="M118 238H294" stroke="#24384C" stroke-width="18" stroke-linecap="round"/>
        <path d="M118 330H338" stroke="#24384C" stroke-width="18" stroke-linecap="round"/>

        <rect x="100" y="116" width="34" height="246" rx="17" fill="#EFF6FB"/>

        <rect x="148" y="126" width="154" height="40" rx="20" fill="url(#spWarm)"/>
        <rect x="310" y="126" width="32" height="40" rx="16" fill="#F3A281" fill-opacity="0.95"/>

        <rect x="148" y="218" width="116" height="40" rx="20" fill="url(#spCool)"/>
        <rect x="272" y="218" width="52" height="40" rx="20" fill="#76E8D6" fill-opacity="0.98"/>

        <rect x="148" y="310" width="94" height="40" rx="20" fill="url(#spGold)"/>
        <rect x="250" y="310" width="84" height="40" rx="20" fill="#FFD978" fill-opacity="0.98"/>

        <path d="M342 146H356L404 194M324 238H354L404 194M334 330H366L404 292" stroke="url(#spNode)" stroke-width="16" stroke-linecap="round" stroke-linejoin="round"/>

        <circle cx="356" cy="146" r="18" fill="#A8EDFF"/>
        <circle cx="404" cy="194" r="25" fill="#E5FAFF"/>
        <circle cx="404" cy="292" r="25" fill="#E5FAFF"/>
        <circle cx="404" cy="194" r="34" fill="#A8EDFF" fill-opacity="0.12"/>
        <circle cx="404" cy="292" r="34" fill="#A8EDFF" fill-opacity="0.12"/>
      </g>
    </svg>

    <text x="400" y="192" fill="#F4F9FD" font-family="Inter, ui-sans-serif, system-ui, -apple-system, BlinkMacSystemFont, 'Segoe UI', sans-serif" font-size="72" font-weight="800">
      <tspan>perfetto</tspan><tspan fill="#A9EEFF">-mcp</tspan><tspan fill="#FFD86F">-rs</tspan>
    </text>
    <text x="404" y="250" fill="#B9CBDA" font-family="Inter, ui-sans-serif, system-ui, -apple-system, BlinkMacSystemFont, 'Segoe UI', sans-serif" font-size="30" font-weight="600">
      Perfetto trace analysis over MCP
    </text>
  </g>

  <text x="640" y="572" text-anchor="middle" fill="#D6E6F5" font-family="Inter, ui-sans-serif, system-ui, -apple-system, BlinkMacSystemFont, 'Segoe UI', sans-serif" font-size="28" font-weight="650">
    Query traces with LLMs, backed by PerfettoSQL
  </text>
</svg>
