<svg width="1280" height="640" viewBox="0 0 1280 640" fill="none" xmlns="http://www.w3.org/2000/svg" role="img" aria-labelledby="title desc">
  <title id="title">perfetto-mcp-rs social preview</title>
  <desc id="desc">GitHub social preview image for perfetto-mcp-rs, featuring the horizontal wordmark on a branded dark background.</desc>
  <defs>
    <linearGradient id="bg" x1="84" y1="28" x2="1206" y2="624" gradientUnits="userSpaceOnUse">
      <stop stop-color="#22354C"/>
      <stop offset="0.55" stop-color="#29445F"/>
      <stop offset="1" stop-color="#32516E"/>
    </linearGradient>
    <linearGradient id="sheen" x1="180" y1="92" x2="1100" y2="560" gradientUnits="userSpaceOnUse">
      <stop stop-color="#FFFFFF" stop-opacity="0.06"/>
      <stop offset="0.45" stop-color="#FFFFFF" stop-opacity="0.01"/>
      <stop offset="1" stop-color="#FFFFFF" stop-opacity="0"/>
    </linearGradient>
    <radialGradient id="warmGlow" cx="0" cy="0" r="1" gradientUnits="userSpaceOnUse" gradientTransform="translate(252 178) rotate(28.4) scale(335 192)">
      <stop stop-color="#FF7A59" stop-opacity="0.45"/>
      <stop offset="1" stop-color="#FF7A59" stop-opacity="0"/>
    </radialGradient>
    <radialGradient id="coolGlow" cx="0" cy="0" r="1" gradientUnits="userSpaceOnUse" gradientTransform="translate(978 214) rotate(145) scale(428 245)">
      <stop stop-color="#58CCFF" stop-opacity="0.48"/>
      <stop offset="1" stop-color="#58CCFF" stop-opacity="0"/>
    </radialGradient>
    <radialGradient id="goldGlow" cx="0" cy="0" r="1" gradientUnits="userSpaceOnUse" gradientTransform="translate(994 502) rotate(-169) scale(358 178)">
      <stop stop-color="#FFD978" stop-opacity="0.40"/>
      <stop offset="1" stop-color="#FFD978" stop-opacity="0"/>
    </radialGradient>
    <filter id="soft" x="48" y="24" width="1184" height="592" filterUnits="userSpaceOnUse" color-interpolation-filters="sRGB">
      <feDropShadow dx="0" dy="18" stdDeviation="18" flood-color="#08111B" flood-opacity="0.14"/>
    </filter>
  </defs>

  <rect width="1280" height="640" fill="#22354A"/>
  <rect width="1280" height="640" fill="url(#bg)"/>
  <rect width="1280" height="640" fill="url(#sheen)"/>
  <rect width="1280" height="640" fill="url(#warmGlow)"/>
  <rect width="1280" height="640" fill="url(#coolGlow)"/>
  <rect width="1280" height="640" fill="url(#goldGlow)"/>

  <g filter="url(#soft)">
    <rect x="74" y="58" width="1132" height="524" rx="88" fill="#2B4560" fill-opacity="0.48"/>
    <rect x="90" y="74" width="1100" height="492" rx="72" stroke="#537394" stroke-width="2"/>
  </g>

  <svg x="100" y="112" width="1080" height="288" viewBox="0 0 1200 320" fill="none">
  <defs>
    <linearGradient id="panel" x1="38" y1="30" x2="1118" y2="312" gradientUnits="userSpaceOnUse">
      <stop stop-color="#0F1724"/>
      <stop offset="1" stop-color="#15273C"/>
    </linearGradient>
    <linearGradient id="tagBg" x1="947" y1="132" x2="1115" y2="188" gradientUnits="userSpaceOnUse">
      <stop stop-color="#193854"/>
      <stop offset="1" stop-color="#234D73"/>
    </linearGradient>
    <linearGradient id="wmHighlight" x1="600" y1="20" x2="600" y2="300" gradientUnits="userSpaceOnUse">
      <stop stop-color="#7CA4CC" stop-opacity="0.42"/>
      <stop offset="0.5" stop-color="#7CA4CC" stop-opacity="0.1"/>
      <stop offset="1" stop-color="#7CA4CC" stop-opacity="0"/>
    </linearGradient>
    <filter id="shadow" x="4" y="8" width="1192" height="320" filterUnits="userSpaceOnUse" color-interpolation-filters="sRGB">
      <feDropShadow dx="0" dy="16" stdDeviation="16" flood-color="#07101A" flood-opacity="0.28"/>
    </filter>
  </defs>

  <g filter="url(#shadow)">
    <rect x="20" y="20" width="1160" height="280" rx="72" fill="url(#panel)"/>
    <rect x="32" y="32" width="1136" height="256" rx="60" stroke="#274159" stroke-width="2"/>
    <rect x="20" y="20" width="1160" height="280" rx="72" fill="none" stroke="url(#wmHighlight)" stroke-width="1.5"/>

    <svg x="64" y="46" width="228" height="228" viewBox="0 0 512 512">
      <defs>
        <linearGradient id="wmMarkBg" x1="72" y1="52" x2="440" y2="460" gradientUnits="userSpaceOnUse">
          <stop stop-color="#0F1724"/>
          <stop offset="1" stop-color="#14263A"/>
        </linearGradient>
        <linearGradient id="wmTraceWarm" x1="126" y1="126" x2="306" y2="126" gradientUnits="userSpaceOnUse">
          <stop stop-color="#FF7A59"/>
          <stop offset="1" stop-color="#FF9A4D"/>
        </linearGradient>
        <linearGradient id="wmTraceCool" x1="126" y1="221" x2="322" y2="221" gradientUnits="userSpaceOnUse">
          <stop stop-color="#48C7F0"/>
          <stop offset="1" stop-color="#5FE0C1"/>
        </linearGradient>
        <linearGradient id="wmTraceGold" x1="126" y1="320" x2="322" y2="320" gradientUnits="userSpaceOnUse">
          <stop stop-color="#F5B83D"/>
          <stop offset="1" stop-color="#FFD46B"/>
        </linearGradient>
        <linearGradient id="wmNodeGlow" x1="322" y1="110" x2="420" y2="268" gradientUnits="userSpaceOnUse">
          <stop stop-color="#B8F4FF"/>
          <stop offset="1" stop-color="#8CD9FF"/>
        </linearGradient>
      </defs>

      <rect x="52" y="52" width="408" height="408" rx="96" fill="url(#wmMarkBg)"/>
      <rect x="68" y="68" width="376" height="376" rx="80" stroke="#29415A" stroke-opacity="0.9" stroke-width="2"/>

      <g transform="translate(0 22)">
        <path d="M116 148H318" stroke="#223548" stroke-width="14" stroke-linecap="round"/>
        <path d="M116 240H318" stroke="#223548" stroke-width="14" stroke-linecap="round"/>
        <path d="M116 336H318" stroke="#223548" stroke-width="14" stroke-linecap="round"/>

        <rect x="98" y="110" width="30" height="250" rx="15" fill="#E6EEF5"/>

        <rect x="126" y="116" width="168" height="32" rx="16" fill="url(#wmTraceWarm)"/>
        <rect x="302" y="116" width="34" height="32" rx="16" fill="#F3A281" fill-opacity="0.9"/>

        <rect x="126" y="210" width="126" height="30" rx="15" fill="url(#wmTraceCool)"/>
        <rect x="260" y="210" width="62" height="30" rx="15" fill="#76E8D6" fill-opacity="0.95"/>

        <rect x="126" y="306" width="96" height="30" rx="15" fill="url(#wmTraceGold)"/>
        <rect x="230" y="306" width="92" height="30" rx="15" fill="#FFD978" fill-opacity="0.95"/>

        <path d="M338 132H370L402 172M252 225H356L402 172M322 321H360L402 280" stroke="url(#wmNodeGlow)" stroke-width="12" stroke-linecap="round" stroke-linejoin="round"/>

        <circle cx="402" cy="172" r="18" fill="#DDF7FF"/>
        <circle cx="402" cy="280" r="18" fill="#DDF7FF"/>
        <circle cx="370" cy="132" r="14" fill="#9BE5FF"/>
        <circle cx="370" cy="132" r="25" fill="#9BE5FF" fill-opacity="0.12"/>
        <circle cx="402" cy="172" r="30" fill="#A4E9FF" fill-opacity="0.08"/>
        <circle cx="402" cy="280" r="30" fill="#A4E9FF" fill-opacity="0.08"/>
      </g>
    </svg>

    <path
      d="M 530 162 L 530 -426 L 172 -426 L 172 1120 L 530 1120 L 530 956 Q 604 1054 694 1100.50 Q 784 1147 901 1147 Q 1108 1147 1241 982.50 Q 1374 818 1374 559 Q 1374 300 1241 135.50 Q 1108 -29 901 -29 Q 784 -29 694 17.50 Q 604 64 530 162 Z M 768 887 Q 653 887 591.50 802.50 Q 530 718 530 559 Q 530 400 591.50 315.50 Q 653 231 768 231 Q 883 231 943.50 315 Q 1004 399 1004 559 Q 1004 719 943.50 803 Q 883 887 768 887 Z M 2756 563 L 2756 461 L 1919 461 Q 1932 335 2010 272 Q 2088 209 2228 209 Q 2341 209 2459.50 242.50 Q 2578 276 2703 344 L 2703 68 Q 2576 20 2449 -4.50 Q 2322 -29 2195 -29 Q 1891 -29 1722.50 125.50 Q 1554 280 1554 559 Q 1554 833 1719.50 990 Q 1885 1147 2175 1147 Q 2439 1147 2597.50 988 Q 2756 829 2756 563 Z M 2388 682 Q 2388 784 2328.50 846.50 Q 2269 909 2173 909 Q 2069 909 2004 850.50 Q 1939 792 1923 682 L 2388 682 Z M 3859 815 Q 3812 837 3765.50 847.50 Q 3719 858 3672 858 Q 3534 858 3459.50 769.50 Q 3385 681 3385 516 L 3385 0 L 3027 0 L 3027 1120 L 3385 1120 L 3385 936 Q 3454 1046 3543.50 1096.50 Q 3633 1147 3758 1147 Q 3776 1147 3797 1145.50 Q 3818 1144 3858 1139 L 3859 815 Z M 4774 1556 L 4774 1321 L 4576 1321 Q 4500 1321 4470 1293.50 Q 4440 1266 4440 1198 L 4440 1120 L 4746 1120 L 4746 864 L 4440 864 L 4440 0 L 4082 0 L 4082 864 L 3904 864 L 3904 1120 L 4082 1120 L 4082 1198 Q 4082 1381 4184 1468.50 Q 4286 1556 4500 1556 L 4774 1556 Z M 6046 563 L 6046 461 L 5209 461 Q 5222 335 5300 272 Q 5378 209 5518 209 Q 5631 209 5749.50 242.50 Q 5868 276 5993 344 L 5993 68 Q 5866 20 5739 -4.50 Q 5612 -29 5485 -29 Q 5181 -29 5012.50 125.50 Q 4844 280 4844 559 Q 4844 833 5009.50 990 Q 5175 1147 5465 1147 Q 5729 1147 5887.50 988 Q 6046 829 6046 563 Z M 5678 682 Q 5678 784 5618.50 846.50 Q 5559 909 5463 909 Q 5359 909 5294 850.50 Q 5229 792 5213 682 L 5678 682 Z M 6708 1438 L 6708 1120 L 7077 1120 L 7077 864 L 6708 864 L 6708 389 Q 6708 311 6739 283.50 Q 6770 256 6862 256 L 7046 256 L 7046 0 L 6739 0 Q 6527 0 6438.50 88.50 Q 6350 177 6350 389 L 6350 864 L 6172 864 L 6172 1120 L 6350 1120 L 6350 1438 L 6708 1438 Z M 7687 1438 L 7687 1120 L 8056 1120 L 8056 864 L 7687 864 L 7687 389 Q 7687 311 7718 283.50 Q 7749 256 7841 256 L 8025 256 L 8025 0 L 7718 0 Q 7506 0 7417.50 88.50 Q 7329 177 7329 389 L 7329 864 L 7151 864 L 7151 1120 L 7329 1120 L 7329 1438 L 7687 1438 Z M 8808 891 Q 8689 891 8626.50 805.50 Q 8564 720 8564 559 Q 8564 398 8626.50 312.50 Q 8689 227 8808 227 Q 8925 227 8987 312.50 Q 9049 398 9049 559 Q 9049 720 8987 805.50 Q 8925 891 8808 891 Z M 8808 1147 Q 9097 1147 9259.50 991 Q 9422 835 9422 559 Q 9422 283 9259.50 127 Q 9097 -29 8808 -29 Q 8518 -29 8354.50 127 Q 8191 283 8191 559 Q 8191 835 8354.50 991 Q 8518 1147 8808 1147 Z"
      fill="#F3F8FC"
      transform="translate(336 193) scale(0.057 -0.057)"
    />

    <g>
      <rect x="943" y="132" width="174" height="56" rx="28" fill="url(#tagBg)"/>
      <rect x="943" y="132" width="174" height="56" rx="28" stroke="#3A678D" stroke-width="1.5"/>
      <path
        d="M 1210 934 Q 1278 1038 1371.50 1092.50 Q 1465 1147 1577 1147 Q 1770 1147 1871 1028 Q 1972 909 1972 682 L 1972 0 L 1612 0 L 1612 584 Q 1613 597 1613.50 611 Q 1614 625 1614 651 Q 1614 770 1579 823.50 Q 1544 877 1466 877 Q 1364 877 1308.50 793 Q 1253 709 1251 550 L 1251 0 L 891 0 L 891 584 Q 891 770 859 823.50 Q 827 877 745 877 Q 642 877 586 792.50 Q 530 708 530 551 L 530 0 L 170 0 L 170 1120 L 530 1120 L 530 956 Q 596 1051 681.50 1099 Q 767 1147 870 1147 Q 986 1147 1075 1091 Q 1164 1035 1210 934 Z M 3211 1085 L 3211 793 Q 3138 843 3064.50 867 Q 2991 891 2912 891 Q 2762 891 2678.50 803.50 Q 2595 716 2595 559 Q 2595 402 2678.50 314.50 Q 2762 227 2912 227 Q 2996 227 3071.50 252 Q 3147 277 3211 326 L 3211 33 Q 3127 2 3040.50 -13.50 Q 2954 -29 2867 -29 Q 2564 -29 2393 126.50 Q 2222 282 2222 559 Q 2222 836 2393 991.50 Q 2564 1147 2867 1147 Q 2955 1147 3040.50 1131.50 Q 3126 1116 3211 1085 Z M 3878 162 L 3878 -426 L 3520 -426 L 3520 1120 L 3878 1120 L 3878 956 Q 3952 1054 4042 1100.50 Q 4132 1147 4249 1147 Q 4456 1147 4589 982.50 Q 4722 818 4722 559 Q 4722 300 4589 135.50 Q 4456 -29 4249 -29 Q 4132 -29 4042 17.50 Q 3952 64 3878 162 Z M 4116 887 Q 4001 887 3939.50 802.50 Q 3878 718 3878 559 Q 3878 400 3939.50 315.50 Q 4001 231 4116 231 Q 4231 231 4291.50 315 Q 4352 399 4352 559 Q 4352 719 4291.50 803 Q 4231 887 4116 887 Z"
        fill="#FFD978"
        transform="translate(959 172) scale(0.0185 -0.0185)"
      />
      <path
        d="M 111 735 L 739 735 L 739 444 L 111 444 L 111 735 Z M 1854 815 Q 1807 837 1760.50 847.50 Q 1714 858 1667 858 Q 1529 858 1454.50 769.50 Q 1380 681 1380 516 L 1380 0 L 1022 0 L 1022 1120 L 1380 1120 L 1380 936 Q 1449 1046 1538.50 1096.50 Q 1628 1147 1753 1147 Q 1771 1147 1792 1145.50 Q 1813 1144 1853 1139 L 1854 815 Z M 2907 1085 L 2907 813 Q 2792 861 2685 885 Q 2578 909 2483 909 Q 2381 909 2331.50 883.50 Q 2282 858 2282 805 Q 2282 762 2319.50 739 Q 2357 716 2454 705 L 2517 696 Q 2792 661 2887 581 Q 2982 501 2982 330 Q 2982 151 2850 61 Q 2718 -29 2456 -29 Q 2345 -29 2226.50 -11.50 Q 2108 6 1983 41 L 1983 313 Q 2090 261 2202.50 235 Q 2315 209 2431 209 Q 2536 209 2589 238 Q 2642 267 2642 324 Q 2642 372 2605.50 395.50 Q 2569 419 2460 432 L 2397 440 Q 2158 470 2062 551 Q 1966 632 1966 797 Q 1966 975 2088 1061 Q 2210 1147 2462 1147 Q 2561 1147 2670 1132 Q 2779 1117 2907 1085 Z"
        fill="#DDF6FF"
        transform="translate(1048.06 172) scale(0.0185 -0.0185)"
      />
    </g>
  </g>
</svg>

  <rect x="124" y="448" width="318" height="3" rx="1.5" fill="#456281"/>
  <rect x="462" y="448" width="148" height="3" rx="1.5" fill="#73BFE4"/>
  <rect x="628" y="448" width="528" height="3" rx="1.5" fill="#456281"/>

  <text x="640" y="520" text-anchor="middle"
    font-size="32" font-weight="700" letter-spacing="1.4"
    font-family="'Helvetica Neue', Arial, 'DejaVu Sans', sans-serif">
    <tspan fill="#D6E6F5">Perfetto trace analysis over </tspan><tspan fill="#FFD978">MCP</tspan>
  </text>
</svg>
