<svg width="1280" height="640" viewBox="0 0 1280 640" fill="none" xmlns="http://www.w3.org/2000/svg" role="img" aria-labelledby="title desc">
  <title id="title">perfetto-mcp-rs social preview</title>
  <desc id="desc">GitHub social preview image for perfetto-mcp-rs, featuring the current trace and MCP wordmark on a branded background.</desc>
  <defs>
    <linearGradient id="spBg" x1="96" y1="24" x2="1150" y2="630" gradientUnits="userSpaceOnUse">
      <stop stop-color="#101826"/>
      <stop offset="0.58" stop-color="#17304A"/>
      <stop offset="1" stop-color="#1C405F"/>
    </linearGradient>
    <linearGradient id="spPanel" x1="120" y1="92" x2="1160" y2="372" gradientUnits="userSpaceOnUse">
      <stop stop-color="#101826"/>
      <stop offset="1" stop-color="#18324B"/>
    </linearGradient>
    <linearGradient id="spWarm" x1="148" y1="146" x2="318" y2="146" gradientUnits="userSpaceOnUse">
      <stop stop-color="#FF765C"/>
      <stop offset="1" stop-color="#FFA14A"/>
    </linearGradient>
    <linearGradient id="spCool" x1="148" y1="238" x2="292" y2="238" gradientUnits="userSpaceOnUse">
      <stop stop-color="#49C9F3"/>
      <stop offset="1" stop-color="#5CE0C3"/>
    </linearGradient>
    <linearGradient id="spGold" x1="148" y1="330" x2="338" y2="330" gradientUnits="userSpaceOnUse">
      <stop stop-color="#F4B640"/>
      <stop offset="1" stop-color="#FFD86F"/>
    </linearGradient>
    <linearGradient id="spNode" x1="296" y1="132" x2="416" y2="306" gradientUnits="userSpaceOnUse">
      <stop stop-color="#B9F5FF"/>
      <stop offset="1" stop-color="#75D2FF"/>
    </linearGradient>
    <linearGradient id="spTraceFade" x1="260" y1="454" x2="1020" y2="454" gradientUnits="userSpaceOnUse">
      <stop stop-color="#4D6885" stop-opacity="0.08"/>
      <stop offset="0.5" stop-color="#76CDEB" stop-opacity="0.22"/>
      <stop offset="1" stop-color="#4D6885" stop-opacity="0.08"/>
    </linearGradient>
    <filter id="spShadow" x="72" y="60" width="1136" height="330" filterUnits="userSpaceOnUse" color-interpolation-filters="sRGB">
      <feDropShadow dx="0" dy="18" stdDeviation="18" flood-color="#07101A" flood-opacity="0.30"/>
    </filter>
  </defs>

  <rect width="1280" height="640" fill="#101826"/>
  <rect width="1280" height="640" fill="url(#spBg)"/>

  <path d="M0 118H1280" stroke="#2C4661" stroke-opacity="0.32" stroke-width="2"/>
  <path d="M0 520H1280" stroke="#2C4661" stroke-opacity="0.28" stroke-width="2"/>
  <path d="M112 62H1168" stroke="#496780" stroke-opacity="0.20" stroke-width="2" stroke-linecap="round"/>
  <path d="M112 578H1168" stroke="#496780" stroke-opacity="0.20" stroke-width="2" stroke-linecap="round"/>

  <g opacity="0.34">
    <path d="M260 468H1020" stroke="url(#spTraceFade)" stroke-width="3" stroke-linecap="round"/>
  </g>

  <g opacity="0.52">
    <rect x="274" y="464" width="120" height="8" rx="4" fill="url(#spWarm)"/>
    <rect x="410" y="464" width="48" height="8" rx="4" fill="#F3A281"/>
    <rect x="548" y="464" width="146" height="8" rx="4" fill="url(#spCool)"/>
    <rect x="710" y="464" width="64" height="8" rx="4" fill="#76E8D6"/>
    <rect x="858" y="464" width="104" height="8" rx="4" fill="url(#spGold)"/>
    <rect x="978" y="464" width="56" height="8" rx="4" fill="#FFD978"/>
  </g>

  <g filter="url(#spShadow)">
    <rect x="110" y="78" width="1060" height="292" rx="46" fill="url(#spPanel)"/>

    <svg x="158" y="102" width="210" height="202" viewBox="82 96 368 300" fill="none">
      <g transform="translate(0 10)">
        <path d="M118 146H318" stroke="#24384C" stroke-width="18" stroke-linecap="round"/>
        <path d="M118 238H294" stroke="#24384C" stroke-width="18" stroke-linecap="round"/>
        <path d="M118 330H338" stroke="#24384C" stroke-width="18" stroke-linecap="round"/>

        <rect x="100" y="116" width="34" height="246" rx="17" fill="#EFF6FB"/>

        <rect x="148" y="126" width="154" height="40" rx="20" fill="url(#spWarm)"/>
        <rect x="310" y="126" width="32" height="40" rx="16" fill="#F3A281" fill-opacity="0.95"/>

        <rect x="148" y="218" width="116" height="40" rx="20" fill="url(#spCool)"/>
        <rect x="272" y="218" width="52" height="40" rx="20" fill="#76E8D6" fill-opacity="0.98"/>

        <rect x="148" y="310" width="94" height="40" rx="20" fill="url(#spGold)"/>
        <rect x="250" y="310" width="84" height="40" rx="20" fill="#FFD978" fill-opacity="0.98"/>

        <path d="M342 146H356L404 194M324 238H354L404 194M334 330H366L404 292" stroke="url(#spNode)" stroke-width="16" stroke-linecap="round" stroke-linejoin="round"/>

        <circle cx="356" cy="146" r="18" fill="#A8EDFF"/>
        <circle cx="404" cy="194" r="25" fill="#E5FAFF"/>
        <circle cx="404" cy="292" r="25" fill="#E5FAFF"/>
        <circle cx="404" cy="194" r="34" fill="#A8EDFF" fill-opacity="0.12"/>
        <circle cx="404" cy="292" r="34" fill="#A8EDFF" fill-opacity="0.12"/>
      </g>
    </svg>

    <text x="404" y="198" fill="#F4F9FD" font-family="Inter, ui-sans-serif, system-ui, -apple-system, BlinkMacSystemFont, 'Segoe UI', sans-serif" font-size="80" font-weight="800">
      <tspan>perfetto</tspan><tspan fill="#A9EEFF">-mcp</tspan><tspan fill="#FFD86F">-rs</tspan>
    </text>
    <text x="410" y="260" fill="#B9CBDA" font-family="Inter, ui-sans-serif, system-ui, -apple-system, BlinkMacSystemFont, 'Segoe UI', sans-serif" font-size="32" font-weight="600">
      Perfetto trace analysis over MCP
    </text>
  </g>

  <text x="640" y="544" text-anchor="middle" fill="#C8D8E6" font-family="Inter, ui-sans-serif, system-ui, -apple-system, BlinkMacSystemFont, 'Segoe UI', sans-serif" font-size="26" font-weight="600">
    Query traces with LLMs, backed by PerfettoSQL
  </text>
</svg>
